<mxfile host="app.diagrams.net" modified="2022-01-04T19:29:41.708Z" agent="5.0 (Windows NT 10.0; Win64; x64) AppleWebKit/537.36 (KHTML, like Gecko) Chrome/96.0.4664.110 Safari/537.36" etag="_hnvD32Hldc1j7DLNmre" version="16.2.0" type="github">
  <diagram id="rZ5K7mYYI--8vyTnPfz0" name="Page-1">
    <mxGraphModel dx="1422" dy="914" grid="0" gridSize="10" guides="1" tooltips="1" connect="1" arrows="1" fold="1" page="1" pageScale="1" pageWidth="827" pageHeight="1169" math="0" shadow="0">
      <root>
        <mxCell id="0" />
        <mxCell id="1" parent="0" />
        <mxCell id="Es2B9YMbTBRfLWk8UN1K-47" value="" style="edgeStyle=orthogonalEdgeStyle;curved=0;rounded=1;sketch=0;orthogonalLoop=1;jettySize=auto;html=1;fontColor=#1A1A1A;strokeColor=#09555B;" parent="1" target="Es2B9YMbTBRfLWk8UN1K-71" edge="1">
          <mxGeometry relative="1" as="geometry">
            <mxPoint x="290" y="160" as="sourcePoint" />
          </mxGeometry>
        </mxCell>
        <mxCell id="Es2B9YMbTBRfLWk8UN1K-48" style="edgeStyle=orthogonalEdgeStyle;rounded=0;orthogonalLoop=1;jettySize=auto;html=1;entryX=0;entryY=0.75;entryDx=0;entryDy=0;strokeColor=#09555B;fontColor=#1A1A1A;" parent="1" source="Es2B9YMbTBRfLWk8UN1K-50" target="Es2B9YMbTBRfLWk8UN1K-51" edge="1">
          <mxGeometry relative="1" as="geometry" />
        </mxCell>
        <mxCell id="Es2B9YMbTBRfLWk8UN1K-49" value="" style="edgeStyle=orthogonalEdgeStyle;curved=0;rounded=1;sketch=0;orthogonalLoop=1;jettySize=auto;html=1;fontColor=#1A1A1A;strokeColor=#09555B;" parent="1" source="Es2B9YMbTBRfLWk8UN1K-50" target="Es2B9YMbTBRfLWk8UN1K-61" edge="1">
          <mxGeometry relative="1" as="geometry" />
        </mxCell>
        <mxCell id="Es2B9YMbTBRfLWk8UN1K-50" value="data_atual &amp;gt; data_evento" style="rhombus;whiteSpace=wrap;html=1;shadow=0;fontFamily=Helvetica;fontSize=12;align=center;strokeWidth=1;spacing=6;spacingTop=-4;fillColor=#FAD9D5;strokeColor=#D0CEE2;fontColor=#1A1A1A;" parent="1" vertex="1">
          <mxGeometry x="240" y="290" width="100" height="80" as="geometry" />
        </mxCell>
        <mxCell id="Es2B9YMbTBRfLWk8UN1K-51" value="Data inválida, cadastro não permitido" style="rounded=1;whiteSpace=wrap;html=1;fontSize=12;glass=0;strokeWidth=1;shadow=0;fillColor=#FAD9D5;strokeColor=#D0CEE2;fontColor=#1A1A1A;" parent="1" vertex="1">
          <mxGeometry x="425" y="300" width="120" height="40" as="geometry" />
        </mxCell>
        <mxCell id="Es2B9YMbTBRfLWk8UN1K-52" value="" style="edgeStyle=orthogonalEdgeStyle;curved=0;rounded=1;sketch=0;orthogonalLoop=1;jettySize=auto;html=1;fontColor=#1A1A1A;strokeColor=#09555B;" parent="1" source="Es2B9YMbTBRfLWk8UN1K-54" target="Es2B9YMbTBRfLWk8UN1K-55" edge="1">
          <mxGeometry relative="1" as="geometry" />
        </mxCell>
        <mxCell id="Es2B9YMbTBRfLWk8UN1K-53" value="" style="edgeStyle=orthogonalEdgeStyle;curved=0;rounded=1;sketch=0;orthogonalLoop=1;jettySize=auto;html=1;fontColor=#1A1A1A;strokeColor=#09555B;" parent="1" source="Es2B9YMbTBRfLWk8UN1K-54" target="Es2B9YMbTBRfLWk8UN1K-57" edge="1">
          <mxGeometry relative="1" as="geometry" />
        </mxCell>
        <mxCell id="Es2B9YMbTBRfLWk8UN1K-54" value="ano_atual - ano_nascimento &amp;gt;=&lt;br&gt;&amp;nbsp;18 anos?" style="rhombus;whiteSpace=wrap;html=1;shadow=0;fontFamily=Helvetica;fontSize=12;align=center;strokeWidth=1;spacing=6;spacingTop=-4;fillColor=#FAD9D5;strokeColor=#D0CEE2;fontColor=#1A1A1A;" parent="1" vertex="1">
          <mxGeometry x="187.5" y="620" width="115" height="90" as="geometry" />
        </mxCell>
        <mxCell id="Es2B9YMbTBRfLWk8UN1K-55" value="Menor de 18 anos, cadastro não permitido" style="rounded=1;whiteSpace=wrap;html=1;fontSize=12;glass=0;strokeWidth=1;shadow=0;fillColor=#FAD9D5;strokeColor=#D0CEE2;fontColor=#1A1A1A;" parent="1" vertex="1">
          <mxGeometry x="10" y="645" width="120" height="40" as="geometry" />
        </mxCell>
        <mxCell id="Es2B9YMbTBRfLWk8UN1K-56" value="" style="edgeStyle=orthogonalEdgeStyle;curved=0;rounded=1;sketch=0;orthogonalLoop=1;jettySize=auto;html=1;fontColor=#1A1A1A;strokeColor=#09555B;" parent="1" source="Es2B9YMbTBRfLWk8UN1K-57" target="Es2B9YMbTBRfLWk8UN1K-81" edge="1">
          <mxGeometry relative="1" as="geometry" />
        </mxCell>
        <mxCell id="Es2B9YMbTBRfLWk8UN1K-57" value="Cadastro permitido" style="rounded=1;whiteSpace=wrap;html=1;fontSize=12;glass=0;strokeWidth=1;shadow=0;fillColor=#FAD9D5;strokeColor=#D0CEE2;fontColor=#1A1A1A;" parent="1" vertex="1">
          <mxGeometry x="400" y="645" width="130" height="40" as="geometry" />
        </mxCell>
        <mxCell id="Es2B9YMbTBRfLWk8UN1K-58" style="edgeStyle=orthogonalEdgeStyle;rounded=0;orthogonalLoop=1;jettySize=auto;html=1;entryX=0.5;entryY=0;entryDx=0;entryDy=0;strokeColor=#09555B;fontColor=#1A1A1A;" parent="1" source="Es2B9YMbTBRfLWk8UN1K-59" edge="1">
          <mxGeometry relative="1" as="geometry">
            <mxPoint x="290" y="120" as="targetPoint" />
          </mxGeometry>
        </mxCell>
        <mxCell id="Es2B9YMbTBRfLWk8UN1K-59" value="Início" style="ellipse;whiteSpace=wrap;html=1;fillColor=#FAD9D5;strokeColor=#D0CEE2;fontColor=#1A1A1A;" parent="1" vertex="1">
          <mxGeometry x="230" y="20" width="120" height="60" as="geometry" />
        </mxCell>
        <mxCell id="Es2B9YMbTBRfLWk8UN1K-60" value="" style="edgeStyle=orthogonalEdgeStyle;curved=0;rounded=1;sketch=0;orthogonalLoop=1;jettySize=auto;html=1;fontColor=#1A1A1A;strokeColor=#09555B;" parent="1" source="Es2B9YMbTBRfLWk8UN1K-61" target="Es2B9YMbTBRfLWk8UN1K-77" edge="1">
          <mxGeometry relative="1" as="geometry" />
        </mxCell>
        <mxCell id="Es2B9YMbTBRfLWk8UN1K-61" value="Evento Permitido" style="rounded=1;whiteSpace=wrap;html=1;fillColor=#FAD9D5;strokeColor=#D0CEE2;fontColor=#1A1A1A;" parent="1" vertex="1">
          <mxGeometry x="50" y="300" width="120" height="60" as="geometry" />
        </mxCell>
        <mxCell id="Es2B9YMbTBRfLWk8UN1K-62" value="" style="edgeStyle=orthogonalEdgeStyle;rounded=0;orthogonalLoop=1;jettySize=auto;html=1;strokeColor=#09555B;fontColor=#1A1A1A;" parent="1" source="Es2B9YMbTBRfLWk8UN1K-64" target="Es2B9YMbTBRfLWk8UN1K-66" edge="1">
          <mxGeometry relative="1" as="geometry" />
        </mxCell>
        <mxCell id="Es2B9YMbTBRfLWk8UN1K-63" value="" style="edgeStyle=orthogonalEdgeStyle;rounded=0;orthogonalLoop=1;jettySize=auto;html=1;strokeColor=#09555B;fontColor=#1A1A1A;" parent="1" source="Es2B9YMbTBRfLWk8UN1K-64" target="Es2B9YMbTBRfLWk8UN1K-67" edge="1">
          <mxGeometry relative="1" as="geometry" />
        </mxCell>
        <mxCell id="Es2B9YMbTBRfLWk8UN1K-64" value="qtd_participante&amp;lt;100" style="rhombus;whiteSpace=wrap;html=1;fillColor=#FAD9D5;strokeColor=#D0CEE2;fontColor=#1A1A1A;" parent="1" vertex="1">
          <mxGeometry x="365" y="955" width="120" height="90" as="geometry" />
        </mxCell>
        <mxCell id="Es2B9YMbTBRfLWk8UN1K-65" value="" style="edgeStyle=orthogonalEdgeStyle;curved=0;rounded=1;sketch=0;orthogonalLoop=1;jettySize=auto;html=1;fontColor=#1A1A1A;strokeColor=#09555B;" parent="1" source="Es2B9YMbTBRfLWk8UN1K-66" target="Es2B9YMbTBRfLWk8UN1K-68" edge="1">
          <mxGeometry relative="1" as="geometry" />
        </mxCell>
        <mxCell id="Es2B9YMbTBRfLWk8UN1K-66" value="Quantidade menor que 100. Cadastro permitido." style="rounded=1;whiteSpace=wrap;html=1;fillColor=#FAD9D5;strokeColor=#D0CEE2;fontColor=#1A1A1A;" parent="1" vertex="1">
          <mxGeometry x="365" y="1080" width="120" height="60" as="geometry" />
        </mxCell>
        <mxCell id="Es2B9YMbTBRfLWk8UN1K-67" value="Limite de participante excedido. Cadastro não permitido." style="rounded=1;whiteSpace=wrap;html=1;fillColor=#FAD9D5;strokeColor=#D0CEE2;fontColor=#1A1A1A;" parent="1" vertex="1">
          <mxGeometry x="365" y="850" width="120" height="60" as="geometry" />
        </mxCell>
        <mxCell id="Es2B9YMbTBRfLWk8UN1K-68" value="Fim" style="ellipse;whiteSpace=wrap;html=1;fillColor=#FAD9D5;strokeColor=#D0CEE2;fontColor=#1A1A1A;" parent="1" vertex="1">
          <mxGeometry x="650" y="870" width="120" height="80" as="geometry" />
        </mxCell>
        <mxCell id="Es2B9YMbTBRfLWk8UN1K-69" value="Não&lt;br&gt;" style="text;html=1;strokeColor=none;fillColor=none;align=center;verticalAlign=middle;whiteSpace=wrap;rounded=0;fontColor=#1A1A1A;" parent="1" vertex="1">
          <mxGeometry x="330" y="300" width="60" height="30" as="geometry" />
        </mxCell>
        <mxCell id="Es2B9YMbTBRfLWk8UN1K-70" value="" style="edgeStyle=orthogonalEdgeStyle;curved=0;rounded=1;sketch=0;orthogonalLoop=1;jettySize=auto;html=1;fontColor=#1A1A1A;strokeColor=#09555B;" parent="1" source="Es2B9YMbTBRfLWk8UN1K-71" target="Es2B9YMbTBRfLWk8UN1K-50" edge="1">
          <mxGeometry relative="1" as="geometry" />
        </mxCell>
        <mxCell id="Es2B9YMbTBRfLWk8UN1K-71" value="data_evento" style="shape=parallelogram;perimeter=parallelogramPerimeter;whiteSpace=wrap;html=1;fixedSize=1;rounded=0;sketch=0;fontColor=#1A1A1A;strokeColor=#D0CEE2;fillColor=#FAD9D5;" parent="1" vertex="1">
          <mxGeometry x="230" y="200" width="120" height="60" as="geometry" />
        </mxCell>
        <mxCell id="Es2B9YMbTBRfLWk8UN1K-72" value="" style="edgeStyle=orthogonalEdgeStyle;curved=0;rounded=1;sketch=0;orthogonalLoop=1;jettySize=auto;html=1;fontColor=#1A1A1A;strokeColor=#09555B;" parent="1" source="Es2B9YMbTBRfLWk8UN1K-73" target="Es2B9YMbTBRfLWk8UN1K-54" edge="1">
          <mxGeometry relative="1" as="geometry" />
        </mxCell>
        <mxCell id="Es2B9YMbTBRfLWk8UN1K-73" value="ano_nascimento" style="shape=parallelogram;perimeter=parallelogramPerimeter;whiteSpace=wrap;html=1;fixedSize=1;rounded=0;sketch=0;fontColor=#1A1A1A;strokeColor=#D0CEE2;fillColor=#FAD9D5;" parent="1" vertex="1">
          <mxGeometry x="185" y="520" width="120" height="60" as="geometry" />
        </mxCell>
        <mxCell id="Es2B9YMbTBRfLWk8UN1K-74" value="Informe a data do evento:" style="shape=display;whiteSpace=wrap;html=1;rounded=0;sketch=0;fontColor=#1A1A1A;strokeColor=#D0CEE2;fillColor=#FAD9D5;" parent="1" vertex="1">
          <mxGeometry x="205" y="120" width="160" height="40" as="geometry" />
        </mxCell>
        <mxCell id="Es2B9YMbTBRfLWk8UN1K-75" value="Sim" style="text;html=1;strokeColor=none;fillColor=none;align=center;verticalAlign=middle;whiteSpace=wrap;rounded=0;sketch=0;fontColor=#1A1A1A;" parent="1" vertex="1">
          <mxGeometry x="175" y="300" width="60" height="30" as="geometry" />
        </mxCell>
        <mxCell id="Es2B9YMbTBRfLWk8UN1K-76" value="" style="edgeStyle=orthogonalEdgeStyle;curved=0;rounded=1;sketch=0;orthogonalLoop=1;jettySize=auto;html=1;fontColor=#1A1A1A;strokeColor=#09555B;" parent="1" source="Es2B9YMbTBRfLWk8UN1K-77" target="Es2B9YMbTBRfLWk8UN1K-73" edge="1">
          <mxGeometry relative="1" as="geometry" />
        </mxCell>
        <mxCell id="Es2B9YMbTBRfLWk8UN1K-77" value="Informe o ano de nascimento:" style="shape=display;whiteSpace=wrap;html=1;rounded=0;sketch=0;fontColor=#1A1A1A;strokeColor=#D0CEE2;fillColor=#FAD9D5;" parent="1" vertex="1">
          <mxGeometry x="170" y="430" width="150" height="50" as="geometry" />
        </mxCell>
        <mxCell id="Es2B9YMbTBRfLWk8UN1K-78" value="Sim" style="text;html=1;strokeColor=none;fillColor=none;align=center;verticalAlign=middle;whiteSpace=wrap;rounded=0;sketch=0;fontColor=#1A1A1A;" parent="1" vertex="1">
          <mxGeometry x="320" y="630" width="60" height="30" as="geometry" />
        </mxCell>
        <mxCell id="Es2B9YMbTBRfLWk8UN1K-79" value="Não" style="text;html=1;strokeColor=none;fillColor=none;align=center;verticalAlign=middle;whiteSpace=wrap;rounded=0;sketch=0;fontColor=#1A1A1A;" parent="1" vertex="1">
          <mxGeometry x="140" y="630" width="60" height="30" as="geometry" />
        </mxCell>
        <mxCell id="Es2B9YMbTBRfLWk8UN1K-80" value="" style="edgeStyle=orthogonalEdgeStyle;curved=0;rounded=1;sketch=0;orthogonalLoop=1;jettySize=auto;html=1;fontColor=#1A1A1A;strokeColor=#09555B;" parent="1" source="Es2B9YMbTBRfLWk8UN1K-81" target="Es2B9YMbTBRfLWk8UN1K-82" edge="1">
          <mxGeometry relative="1" as="geometry" />
        </mxCell>
        <mxCell id="Es2B9YMbTBRfLWk8UN1K-81" value="Informe o tipo de usuário:" style="shape=display;whiteSpace=wrap;html=1;rounded=0;sketch=0;fontColor=#1A1A1A;strokeColor=#D0CEE2;fillColor=#FAD9D5;" parent="1" vertex="1">
          <mxGeometry x="385" y="760" width="160" height="60" as="geometry" />
        </mxCell>
        <mxCell id="Es2B9YMbTBRfLWk8UN1K-82" value="Palestrante" style="shape=parallelogram;perimeter=parallelogramPerimeter;whiteSpace=wrap;html=1;fixedSize=1;rounded=0;sketch=0;fontColor=#1A1A1A;strokeColor=#D0CEE2;fillColor=#FAD9D5;" parent="1" vertex="1">
          <mxGeometry x="670" y="760" width="120" height="60" as="geometry" />
        </mxCell>
        <mxCell id="Es2B9YMbTBRfLWk8UN1K-83" value="" style="edgeStyle=orthogonalEdgeStyle;curved=0;rounded=1;sketch=0;orthogonalLoop=1;jettySize=auto;html=1;fontColor=#1A1A1A;strokeColor=#09555B;" parent="1" source="Es2B9YMbTBRfLWk8UN1K-84" target="Es2B9YMbTBRfLWk8UN1K-86" edge="1">
          <mxGeometry relative="1" as="geometry" />
        </mxCell>
        <mxCell id="Es2B9YMbTBRfLWk8UN1K-84" value="Participante" style="shape=parallelogram;perimeter=parallelogramPerimeter;whiteSpace=wrap;html=1;fixedSize=1;rounded=0;sketch=0;fontColor=#1A1A1A;strokeColor=#D0CEE2;fillColor=#FAD9D5;" parent="1" vertex="1">
          <mxGeometry x="145" y="760" width="120" height="60" as="geometry" />
        </mxCell>
        <mxCell id="Es2B9YMbTBRfLWk8UN1K-85" value="" style="edgeStyle=orthogonalEdgeStyle;curved=0;rounded=1;sketch=0;orthogonalLoop=1;jettySize=auto;html=1;fontColor=#1A1A1A;strokeColor=#09555B;" parent="1" source="Es2B9YMbTBRfLWk8UN1K-86" target="Es2B9YMbTBRfLWk8UN1K-88" edge="1">
          <mxGeometry relative="1" as="geometry" />
        </mxCell>
        <mxCell id="Es2B9YMbTBRfLWk8UN1K-86" value="Informe a quantidade de participantes:" style="shape=display;whiteSpace=wrap;html=1;rounded=0;sketch=0;fontColor=#1A1A1A;strokeColor=#D0CEE2;fillColor=#FAD9D5;" parent="1" vertex="1">
          <mxGeometry x="135" y="880" width="140" height="60" as="geometry" />
        </mxCell>
        <mxCell id="Es2B9YMbTBRfLWk8UN1K-87" value="" style="edgeStyle=orthogonalEdgeStyle;curved=0;rounded=1;sketch=0;orthogonalLoop=1;jettySize=auto;html=1;fontColor=#1A1A1A;strokeColor=#09555B;" parent="1" source="Es2B9YMbTBRfLWk8UN1K-88" target="Es2B9YMbTBRfLWk8UN1K-64" edge="1">
          <mxGeometry relative="1" as="geometry" />
        </mxCell>
        <mxCell id="Es2B9YMbTBRfLWk8UN1K-88" value="qtd_participante" style="shape=parallelogram;perimeter=parallelogramPerimeter;whiteSpace=wrap;html=1;fixedSize=1;rounded=0;sketch=0;fontColor=#1A1A1A;strokeColor=#D0CEE2;fillColor=#FAD9D5;" parent="1" vertex="1">
          <mxGeometry x="145" y="970" width="120" height="60" as="geometry" />
        </mxCell>
        <mxCell id="Es2B9YMbTBRfLWk8UN1K-89" value="Não" style="text;html=1;strokeColor=none;fillColor=none;align=center;verticalAlign=middle;whiteSpace=wrap;rounded=0;sketch=0;fontColor=#1A1A1A;" parent="1" vertex="1">
          <mxGeometry x="350" y="925" width="60" height="30" as="geometry" />
        </mxCell>
        <mxCell id="Es2B9YMbTBRfLWk8UN1K-90" value="Sim" style="text;html=1;strokeColor=none;fillColor=none;align=center;verticalAlign=middle;whiteSpace=wrap;rounded=0;sketch=0;fontColor=#1A1A1A;" parent="1" vertex="1">
          <mxGeometry x="530" y="1080" width="60" height="30" as="geometry" />
        </mxCell>
        <mxCell id="Es2B9YMbTBRfLWk8UN1K-91" value="" style="endArrow=classic;html=1;rounded=1;sketch=0;fontColor=#1A1A1A;strokeColor=#09555B;curved=0;entryX=1;entryY=0.5;entryDx=0;entryDy=0;exitX=0;exitY=0.5;exitDx=0;exitDy=0;exitPerimeter=0;" parent="1" source="Es2B9YMbTBRfLWk8UN1K-81" target="Es2B9YMbTBRfLWk8UN1K-84" edge="1">
          <mxGeometry width="50" height="50" relative="1" as="geometry">
            <mxPoint x="390" y="1020" as="sourcePoint" />
            <mxPoint x="440" y="970" as="targetPoint" />
          </mxGeometry>
        </mxCell>
        <mxCell id="Es2B9YMbTBRfLWk8UN1K-92" value="" style="endArrow=classic;html=1;rounded=1;sketch=0;fontColor=#1A1A1A;strokeColor=#09555B;curved=0;entryX=0;entryY=0.375;entryDx=0;entryDy=0;entryPerimeter=0;" parent="1" target="Es2B9YMbTBRfLWk8UN1K-68" edge="1">
          <mxGeometry width="50" height="50" relative="1" as="geometry">
            <mxPoint x="480" y="900" as="sourcePoint" />
            <mxPoint x="440" y="1070" as="targetPoint" />
          </mxGeometry>
        </mxCell>
      </root>
    </mxGraphModel>
  </diagram>
</mxfile>
